<svg width="18" height="18" viewBox="0 0 18 18" fill="none" xmlns="http://www.w3.org/2000/svg">
<g clip-path="url(#clip0_46_129)">
<path d="M10.5 4.5H16.5M13.5 1.5L13.5 7.5" stroke="#2B2E44" stroke-width="1.5" stroke-linecap="round" stroke-linejoin="round"/>
<path d="M4.57411 14.625C3.59903 14.5291 2.86857 14.2362 2.37868 13.7463C1.5 12.8676 1.5 11.4534 1.5 8.625V8.25C1.5 5.42157 1.5 4.00736 2.37868 3.12868C3.25736 2.25 4.67157 2.25 7.5 2.25H8.625M4.875 13.5C4.7209 14.2514 4.03327 15.8749 4.73677 16.3988C5.1045 16.6663 5.69047 16.3806 6.8624 15.8092C7.68489 15.4081 8.51717 14.9482 9.41595 14.7413C9.74485 14.6664 10.0797 14.6344 10.5 14.625C13.3284 14.625 14.7426 14.625 15.6213 13.7463C16.4603 12.9074 16.4982 11.5802 16.4999 9" stroke="#2B2E44" stroke-width="1.5" stroke-linecap="round"/>
<path d="M6 10.5H10.5M6 6.75H8.25" stroke="#2B2E44" stroke-width="1.5" stroke-linecap="round" stroke-linejoin="round"/>
</g>
<defs>
<clipPath id="clip0_46_129">
<rect width="18" height="18" fill="white"/>
</clipPath>
</defs>
</svg>
